<svg id="Layer_1" data-name="Layer 1" xmlns="http://www.w3.org/2000/svg" viewBox="0 0 378.45 96.48"><defs><style>.cls-1{fill:#d2e5b3;}.cls-2{fill:none;stroke:#3d4752;stroke-miterlimit:10;stroke-width:0.9px;}.cls-3{fill:#3d4752;}</style></defs><title>data-flow-diagram-6</title><rect class="cls-1" x="0.45" y="21.15" width="81" height="55.8" rx="2.25" ry="2.25"/><rect class="cls-2" x="0.45" y="21.15" width="81" height="55.8" rx="2.25" ry="2.25"/><path class="cls-3" d="M16.18,52.21a2.08,2.08,0,0,1-2.23,2.27,2.06,2.06,0,0,1-2.23-2.27V48.6h0.8v3.56a1.43,1.43,0,1,0,2.85,0V48.6h0.8v3.61" transform="translate(-1.61 -2.72)"/><path class="cls-3" d="M17.35,52c-0.5-1.26.95-2,2.14-1.47a1.3,1.3,0,0,1,.6.47l-0.53.45A1,1,0,0,0,18.67,51a0.58,0.58,0,0,0-.71.5c0,0.59.92,0.51,1.39,0.73a1.08,1.08,0,0,1,.78,1c0.06,1.56-2.45,1.51-3.08.55l0.54-.46a1.24,1.24,0,0,0,1,.53,0.62,0.62,0,0,0,.76-0.56c0-.73-1.27-0.51-1.76-0.95a0.84,0.84,0,0,1-.26-0.3" transform="translate(-1.61 -2.72)"/><path class="cls-3" d="M22.82,50.39c1.3,0,1.9.87,1.84,2.25h-3a1.2,1.2,0,0,0,1.25,1.17A1.28,1.28,0,0,0,24,53.22l0.53,0.43a1.92,1.92,0,0,1-1.65.79,2,2,0,0,1,0-4m1.08,1.68a1.07,1.07,0,0,0-1.54-1,1.12,1.12,0,0,0-.75,1h2.28Z" transform="translate(-1.61 -2.72)"/><path class="cls-3" d="M25.73,54.33c0-1.28,0-2.61,0-3.84h0.72c0,0.16,0,.48,0,0.65h0a1.3,1.3,0,0,1,1.47-.72l0,0.7a1.1,1.1,0,0,0-1.43,1.19v2H25.73" transform="translate(-1.61 -2.72)"/><line class="cls-2" x1="81.9" y1="42.66" x2="150.75" y2="42.66"/><rect class="cls-3" x="81.45" y="42.21" width="0.45" height="0.9"/><polygon class="cls-3" points="150.75 42.66 144.31 44.77 144.31 40.59 150.75 42.66"/><path class="cls-3" d="M146.38,46.86l4.54-1.48-4.54-1.44v2.92Zm6.43-1.8v0.67l-7.33,2.34v-5.4Z" transform="translate(-1.61 -2.72)"/><path class="cls-3" d="M93.36,36.47c0-1-1.15-.92-2.19-0.92v1.85c1,0,2.19.09,2.19-.94m0.81,0c0,1.51-1.39,1.69-3,1.62v2.52h-0.8V34.87h1.75C93.32,34.89,94.17,35.29,94.17,36.47Z" transform="translate(-1.61 -2.72)"/><path class="cls-3" d="M94.78,40.61c0-1.28,0-2.61,0-3.84h0.72c0,0.16,0,.48,0,0.65h0A1.3,1.3,0,0,1,97,36.69l0,0.7a1.1,1.1,0,0,0-1.43,1.19v2H94.78" transform="translate(-1.61 -2.72)"/><path class="cls-3" d="M99.38,40.07a1.39,1.39,0,1,0-1.28-1.39,1.24,1.24,0,0,0,1.28,1.39m0-3.41a2,2,0,1,1-2.07,2A1.9,1.9,0,0,1,99.38,36.66Z" transform="translate(-1.61 -2.72)"/><path class="cls-3" d="M104.32,37.29a1.39,1.39,0,0,0,0,2.78,1.39,1.39,0,0,0,0-2.78m-0.14-.63a1.7,1.7,0,0,1,1.39.68V34.48h0.76v6.12h-0.74a3.73,3.73,0,0,0,0-.61,1.6,1.6,0,0,1-1.39.71,1.84,1.84,0,0,1-1.94-2A1.86,1.86,0,0,1,104.18,36.66Z" transform="translate(-1.61 -2.72)"/><path class="cls-3" d="M111,36.77c0,1.28,0,2.61,0,3.84h-0.72c0-.16,0-0.49,0-0.63a1.41,1.41,0,0,1-1.26.74,1.36,1.36,0,0,1-1.43-1.56V36.77h0.76v2.12c0,0.68.19,1.18,0.87,1.18a1.11,1.11,0,0,0,1-1.26v-2H111" transform="translate(-1.61 -2.72)"/><path class="cls-3" d="M112.12,38.69a1.88,1.88,0,0,1,2-2,1.82,1.82,0,0,1,1.44.63l-0.55.45a1.05,1.05,0,0,0-.88-0.44,1.39,1.39,0,0,0,0,2.77,1.1,1.1,0,0,0,.92-0.42l0.51,0.46a1.77,1.77,0,0,1-1.43.6,1.9,1.9,0,0,1-2.07-2" transform="translate(-1.61 -2.72)"/><path class="cls-3" d="M117.59,40.67a1,1,0,0,1-1.12-1.2V37.39h-0.74V36.77h0.74v-1.1h0.75v1.1h1v0.62h-1v2c0,0.44.13,0.64,0.54,0.65a1.09,1.09,0,0,0,.45-0.1l0,0.62a1.94,1.94,0,0,1-.65.11" transform="translate(-1.61 -2.72)"/><path class="cls-3" d="M121.41,34.89a0.5,0.5,0,0,1,.51.49,0.51,0.51,0,1,1-.51-0.49m0.38,5.72H121V36.77h0.76v3.84Z" transform="translate(-1.61 -2.72)"/><path class="cls-3" d="M123.12,40.61c0-1.28,0-2.61,0-3.84h0.72c0,0.16,0,.45,0,0.63h0a1.34,1.34,0,0,1,1.25-.74,1.36,1.36,0,0,1,1.43,1.56v2.38h-0.76V38.48c0-.68-0.19-1.17-0.87-1.17a1.11,1.11,0,0,0-1,1.26v2h-0.76" transform="translate(-1.61 -2.72)"/><path class="cls-3" d="M129.64,37.29a1.39,1.39,0,0,0,0,2.78,1.39,1.39,0,0,0,0-2.78m-0.14-.63a1.57,1.57,0,0,1,1.39.7h0v-0.6h0.74v5.78h-0.76c0-.83,0-1.71,0-2.52a1.59,1.59,0,0,1-1.36.68A2,2,0,0,1,129.51,36.66Z" transform="translate(-1.61 -2.72)"/><path class="cls-3" d="M136.36,36.77c0,1.28,0,2.61,0,3.84h-0.72c0-.16,0-0.49,0-0.63a1.41,1.41,0,0,1-1.26.74,1.36,1.36,0,0,1-1.43-1.56V36.77h0.76v2.12c0,0.68.19,1.18,0.87,1.18a1.11,1.11,0,0,0,1-1.26v-2h0.76" transform="translate(-1.61 -2.72)"/><path class="cls-3" d="M138.07,34.89a0.5,0.5,0,0,1,.51.49,0.51,0.51,0,1,1-.51-0.49m0.38,5.72h-0.76V36.77h0.76v3.84Z" transform="translate(-1.61 -2.72)"/><path class="cls-3" d="M139.78,40.61c0-1.28,0-2.61,0-3.84h0.72c0,0.16,0,.48,0,0.65h0a1.3,1.3,0,0,1,1.47-.72l0,0.7a1.1,1.1,0,0,0-1.43,1.19v2h-0.76" transform="translate(-1.61 -2.72)"/><path class="cls-3" d="M143,36.77c0.41,1,.78,2,1.21,3l1.06-3h0.81l-1.86,4.75a1.4,1.4,0,0,1-1.83,1l0.07-.67a0.79,0.79,0,0,0,.83-0.1,4.73,4.73,0,0,0,.51-1.12l-1.64-3.84H143" transform="translate(-1.61 -2.72)"/><rect class="cls-1" x="151.2" y="21.15" width="90" height="55.8" rx="5.58" ry="5.58"/><rect class="cls-2" x="151.2" y="21.15" width="90" height="55.8" rx="5.58" ry="5.58"/><line class="cls-2" x1="151.2" y1="43.65" x2="241.2" y2="43.65"/><polyline class="cls-3" points="163.27 34.97 162.48 34.97 162.48 32.58 162.48 30.19 161.4 31.09 160.94 30.55 162.56 29.23 163.27 29.23 163.27 32.1 163.27 34.97"/><polyline class="cls-3" points="161.7 56.62 164.26 56.62 164.26 56.97 164.26 57.33 160.9 57.33 160.9 54.46 160.9 51.59 161.7 51.59 161.7 54.11 161.7 56.62"/><path class="cls-3" d="M168.28,59.51A1.39,1.39,0,1,0,167,58.12a1.24,1.24,0,0,0,1.28,1.39m0-3.41a2,2,0,1,1-2.07,2A1.9,1.9,0,0,1,168.28,56.1Z" transform="translate(-1.61 -2.72)"/><path class="cls-3" d="M173.22,59.51a1.39,1.39,0,1,0-1.28-1.39,1.24,1.24,0,0,0,1.28,1.39m0-3.41a2,2,0,1,1-2.07,2A1.9,1.9,0,0,1,173.22,56.1Z" transform="translate(-1.61 -2.72)"/><polyline class="cls-3" points="175.51 55.16 175.53 55.16 177.15 53.49 178.17 53.49 176.37 55.23 178.32 57.33 177.27 57.33 175.53 55.34 175.51 55.34 175.51 56.33 175.51 57.33 174.75 57.33 174.75 54.27 174.75 51.21 175.51 51.21 175.51 53.18 175.51 55.16"/><path class="cls-3" d="M186,56.21c0,1.28,0,2.61,0,3.84h-0.72c0-.16,0-0.49,0-0.63a1.41,1.41,0,0,1-1.26.74,1.36,1.36,0,0,1-1.43-1.56V56.21h0.76v2.12c0,0.68.19,1.18,0.87,1.18a1.11,1.11,0,0,0,1-1.26v-2H186" transform="translate(-1.61 -2.72)"/><path class="cls-3" d="M189.35,59.51a1.39,1.39,0,0,0,0-2.78,1.39,1.39,0,0,0,0,2.78m0.13,0.64a1.59,1.59,0,0,1-1.35-.68h0V62h-0.76V56.21h0.75v0.6h0a1.54,1.54,0,0,1,1.39-.7A2,2,0,0,1,189.48,60.15Z" transform="translate(-1.61 -2.72)"/><path class="cls-3" d="M196.52,59.51a1.39,1.39,0,0,0,0-2.78,1.39,1.39,0,0,0,0,2.78m0.13,0.64a1.59,1.59,0,0,1-1.35-.68h0V62h-0.76V56.21h0.75v0.6h0a1.54,1.54,0,0,1,1.39-.7A2,2,0,0,1,196.65,60.15Z" transform="translate(-1.61 -2.72)"/><path class="cls-3" d="M199.65,60c0-1.28,0-2.61,0-3.84h0.72c0,0.16,0,.48,0,0.65h0a1.3,1.3,0,0,1,1.47-.72l0,0.7A1.1,1.1,0,0,0,200.41,58v2h-0.76" transform="translate(-1.61 -2.72)"/><path class="cls-3" d="M204.25,59.51A1.39,1.39,0,1,0,203,58.12a1.24,1.24,0,0,0,1.28,1.39m0-3.41a2,2,0,1,1-2.07,2A1.9,1.9,0,0,1,204.25,56.1Z" transform="translate(-1.61 -2.72)"/><path class="cls-3" d="M209.18,56.73a1.39,1.39,0,0,0,0,2.78,1.39,1.39,0,0,0,0-2.78M209,56.1a1.7,1.7,0,0,1,1.39.68V53.92h0.76V60h-0.74a3.73,3.73,0,0,0,0-.61,1.6,1.6,0,0,1-1.39.71,1.84,1.84,0,0,1-1.94-2A1.86,1.86,0,0,1,209,56.1Z" transform="translate(-1.61 -2.72)"/><path class="cls-3" d="M215.91,56.21c0,1.28,0,2.61,0,3.84h-0.72c0-.16,0-0.49,0-0.63a1.41,1.41,0,0,1-1.26.74,1.36,1.36,0,0,1-1.43-1.56V56.21h0.76v2.12c0,0.68.19,1.18,0.87,1.18a1.11,1.11,0,0,0,1-1.26v-2h0.76" transform="translate(-1.61 -2.72)"/><path class="cls-3" d="M217,58.13a1.88,1.88,0,0,1,2-2,1.82,1.82,0,0,1,1.44.63l-0.55.45a1.05,1.05,0,0,0-.88-0.44,1.39,1.39,0,0,0,0,2.77,1.1,1.1,0,0,0,.92-0.42l0.51,0.46a1.77,1.77,0,0,1-1.43.6,1.9,1.9,0,0,1-2.07-2" transform="translate(-1.61 -2.72)"/><path class="cls-3" d="M222.46,60.11a1,1,0,0,1-1.12-1.2V56.83H220.6V56.21h0.74v-1.1h0.75v1.1h1v0.62h-1v2c0,0.44.13,0.64,0.54,0.65a1.09,1.09,0,0,0,.45-0.1l0,0.62a1.94,1.94,0,0,1-.65.11" transform="translate(-1.61 -2.72)"/><path class="cls-3" d="M163.75,70.61a1.09,1.09,0,0,0,1.11-1.33c-0.83,0-1.9,0-1.9.73a0.65,0.65,0,0,0,.79.6M162.19,70c0-1.24,1.4-1.26,2.67-1.3a0.83,0.83,0,0,0-.95-0.95,1.6,1.6,0,0,0-1.09.45l-0.4-.49a2.26,2.26,0,0,1,1.57-.58,1.42,1.42,0,0,1,1.6,1.51,23.92,23.92,0,0,0,.06,2.44H165a2.56,2.56,0,0,1-.06-0.55h0a1.47,1.47,0,0,1-1.29.65A1.19,1.19,0,0,1,162.19,70Z" transform="translate(-1.61 -2.72)"/><path class="cls-3" d="M168.67,71.12h-0.83l-1.56-3.84h0.84c0.38,1,.74,2,1.14,3l1.13-3h0.81" transform="translate(-1.61 -2.72)"/><path class="cls-3" d="M172.22,70.61a1.09,1.09,0,0,0,1.11-1.33c-0.83,0-1.9,0-1.9.73a0.65,0.65,0,0,0,.79.6M170.66,70c0-1.24,1.4-1.26,2.67-1.3a0.83,0.83,0,0,0-.95-0.95,1.6,1.6,0,0,0-1.09.45l-0.4-.49a2.26,2.26,0,0,1,1.57-.58,1.42,1.42,0,0,1,1.6,1.51,23.92,23.92,0,0,0,.06,2.44h-0.69a2.56,2.56,0,0,1-.06-0.55h0a1.47,1.47,0,0,1-1.29.65A1.19,1.19,0,0,1,170.66,70Z" transform="translate(-1.61 -2.72)"/><path class="cls-3" d="M175.72,65.4a0.5,0.5,0,0,1,.51.49,0.51,0.51,0,1,1-.51-0.49m0.38,5.72h-0.76V67.28h0.76v3.84Z" transform="translate(-1.61 -2.72)"/><polyline class="cls-3" points="176.59 68.4 175.83 68.4 175.83 65.34 175.83 62.28 176.59 62.28 176.59 65.34 176.59 68.4"/><path class="cls-3" d="M180.82,70.61a1.09,1.09,0,0,0,1.11-1.33c-0.83,0-1.9,0-1.9.73a0.65,0.65,0,0,0,.79.6M179.25,70c0-1.24,1.4-1.26,2.67-1.3a0.83,0.83,0,0,0-.95-0.95,1.6,1.6,0,0,0-1.09.45l-0.4-.49a2.26,2.26,0,0,1,1.57-.58,1.42,1.42,0,0,1,1.6,1.51,23.92,23.92,0,0,0,.06,2.44H182a2.56,2.56,0,0,1-.06-0.55h0a1.47,1.47,0,0,1-1.29.65A1.19,1.19,0,0,1,179.25,70Z" transform="translate(-1.61 -2.72)"/><path class="cls-3" d="M186,70.58a1.39,1.39,0,0,0,0-2.78,1.39,1.39,0,0,0,0,2.78m0.13,0.64a1.62,1.62,0,0,1-1.39-.71h0v0.61h-0.74V65h0.76v2.86h0a1.6,1.6,0,0,1,1.37-.68A2,2,0,0,1,186.08,71.22Z" transform="translate(-1.61 -2.72)"/><path class="cls-3" d="M189.47,65.4a0.5,0.5,0,0,1,.51.49,0.51,0.51,0,1,1-.51-0.49m0.38,5.72h-0.76V67.28h0.76v3.84Z" transform="translate(-1.61 -2.72)"/><polyline class="cls-3" points="190.34 68.4 189.58 68.4 189.58 65.34 189.58 62.28 190.34 62.28 190.34 65.34 190.34 68.4"/><path class="cls-3" d="M193.67,65.4a0.5,0.5,0,0,1,.51.49,0.51,0.51,0,1,1-.51-0.49m0.38,5.72h-0.76V67.28h0.76v3.84Z" transform="translate(-1.61 -2.72)"/><path class="cls-3" d="M196.6,71.18a1,1,0,0,1-1.12-1.2V67.9h-0.74V67.28h0.74v-1.1h0.75v1.1h1V67.9h-1v2c0,0.44.13,0.64,0.54,0.65a1.09,1.09,0,0,0,.45-0.1l0,0.62a1.94,1.94,0,0,1-.65.11" transform="translate(-1.61 -2.72)"/><path class="cls-3" d="M198.31,67.28c0.41,1,.78,2,1.21,3l1.06-3h0.81L199.53,72a1.4,1.4,0,0,1-1.83,1l0.07-.67a0.79,0.79,0,0,0,.83-0.1,4.73,4.73,0,0,0,.51-1.12l-1.64-3.84h0.85" transform="translate(-1.61 -2.72)"/><line class="cls-2" x1="150.75" y1="58.01" x2="81.9" y2="58.01"/><rect class="cls-3" x="150.75" y="57.56" width="0.45" height="0.9"/><polygon class="cls-3" points="88.33 60.12 81.9 58.01 88.33 55.94 88.33 60.12"/><path class="cls-3" d="M85,60.72l4.54,1.48V59.28Zm5.44,2.7-7.33-2.34V60.41L90.4,58v5.4Z" transform="translate(-1.61 -2.72)"/><path class="cls-3" d="M101.78,66.48c0-1-1.15-.92-2.19-0.92v1.85c1,0,2.19.09,2.19-.94m0.81,0c0,1.51-1.39,1.69-3,1.62v2.52h-0.8V64.89h1.75C101.73,64.9,102.59,65.3,102.59,66.48Z" transform="translate(-1.61 -2.72)"/><path class="cls-3" d="M103.2,70.62c0-1.28,0-2.61,0-3.84h0.72c0,0.16,0,.48,0,0.65h0a1.3,1.3,0,0,1,1.47-.72l0,0.7A1.1,1.1,0,0,0,104,68.6v2H103.2" transform="translate(-1.61 -2.72)"/><path class="cls-3" d="M107.8,70.09a1.39,1.39,0,1,0-1.28-1.39,1.24,1.24,0,0,0,1.28,1.39m0-3.41a2,2,0,1,1-2.07,2A1.9,1.9,0,0,1,107.8,66.68Z" transform="translate(-1.61 -2.72)"/><path class="cls-3" d="M112.73,67.31a1.39,1.39,0,0,0,0,2.78,1.39,1.39,0,0,0,0-2.78m-0.14-.63a1.7,1.7,0,0,1,1.39.68V64.5h0.76v6.12H114a3.73,3.73,0,0,0,0-.61,1.6,1.6,0,0,1-1.39.71,1.84,1.84,0,0,1-1.94-2A1.86,1.86,0,0,1,112.59,66.68Z" transform="translate(-1.61 -2.72)"/><path class="cls-3" d="M119.46,66.78c0,1.28,0,2.61,0,3.84h-0.72c0-.16,0-0.49,0-0.63a1.41,1.41,0,0,1-1.26.74A1.36,1.36,0,0,1,116,69.16V66.78h0.76V68.9c0,0.68.19,1.18,0.87,1.18a1.11,1.11,0,0,0,1-1.26v-2h0.76" transform="translate(-1.61 -2.72)"/><path class="cls-3" d="M120.53,68.7a1.88,1.88,0,0,1,2-2,1.82,1.82,0,0,1,1.44.63l-0.55.45a1.05,1.05,0,0,0-.88-0.44,1.39,1.39,0,0,0,0,2.77,1.1,1.1,0,0,0,.92-0.42L124,70.13a1.77,1.77,0,0,1-1.43.6,1.9,1.9,0,0,1-2.07-2" transform="translate(-1.61 -2.72)"/><path class="cls-3" d="M126,70.69a1,1,0,0,1-1.12-1.2V67.41h-0.74V66.78h0.74v-1.1h0.75v1.1h1v0.62h-1v2c0,0.44.13,0.64,0.54,0.65a1.09,1.09,0,0,0,.45-0.1l0,0.62a1.94,1.94,0,0,1-.65.11" transform="translate(-1.61 -2.72)"/><path class="cls-3" d="M100,81.14a1.09,1.09,0,0,0,1.11-1.33c-0.83,0-1.9,0-1.9.73a0.65,0.65,0,0,0,.79.6m-1.56-.58c0-1.24,1.4-1.26,2.67-1.3a0.83,0.83,0,0,0-.95-0.95,1.6,1.6,0,0,0-1.09.45l-0.4-.49a2.26,2.26,0,0,1,1.57-.58,1.42,1.42,0,0,1,1.6,1.51,23.92,23.92,0,0,0,.06,2.44h-0.69a2.56,2.56,0,0,1-.06-0.55h0a1.47,1.47,0,0,1-1.29.65A1.19,1.19,0,0,1,98.47,80.56Z" transform="translate(-1.61 -2.72)"/><path class="cls-3" d="M104.95,81.65h-0.83l-1.56-3.84h0.84c0.38,1,.74,2,1.14,3l1.13-3h0.81" transform="translate(-1.61 -2.72)"/><path class="cls-3" d="M108.5,81.14a1.09,1.09,0,0,0,1.11-1.33c-0.83,0-1.9,0-1.9.73a0.65,0.65,0,0,0,.79.6m-1.56-.58c0-1.24,1.4-1.26,2.67-1.3a0.83,0.83,0,0,0-.95-0.95,1.6,1.6,0,0,0-1.09.45l-0.4-.49a2.26,2.26,0,0,1,1.57-.58,1.42,1.42,0,0,1,1.6,1.51,23.92,23.92,0,0,0,.06,2.44h-0.69a2.56,2.56,0,0,1-.06-0.55h0a1.47,1.47,0,0,1-1.29.65A1.19,1.19,0,0,1,106.94,80.56Z" transform="translate(-1.61 -2.72)"/><path class="cls-3" d="M112,75.93a0.5,0.5,0,0,1,.51.49,0.51,0.51,0,1,1-.51-0.49m0.38,5.72h-0.76V77.81h0.76v3.84Z" transform="translate(-1.61 -2.72)"/><polyline class="cls-3" points="112.87 78.93 112.11 78.93 112.11 75.87 112.11 72.81 112.87 72.81 112.87 75.87 112.87 78.93"/><path class="cls-3" d="M117.1,81.14a1.09,1.09,0,0,0,1.11-1.33c-0.83,0-1.9,0-1.9.73a0.65,0.65,0,0,0,.79.6m-1.56-.58c0-1.24,1.4-1.26,2.67-1.3a0.83,0.83,0,0,0-.95-0.95,1.6,1.6,0,0,0-1.09.45l-0.4-.49a2.26,2.26,0,0,1,1.57-.58,1.42,1.42,0,0,1,1.6,1.51,23.92,23.92,0,0,0,.06,2.44H118.3a2.56,2.56,0,0,1-.06-0.55h0a1.47,1.47,0,0,1-1.29.65A1.19,1.19,0,0,1,115.53,80.56Z" transform="translate(-1.61 -2.72)"/><path class="cls-3" d="M122.23,81.11a1.39,1.39,0,0,0,0-2.78,1.39,1.39,0,0,0,0,2.78m0.13,0.64A1.62,1.62,0,0,1,121,81h0v0.61h-0.74V75.52H121v2.86h0a1.6,1.6,0,0,1,1.37-.68A2,2,0,0,1,122.36,81.75Z" transform="translate(-1.61 -2.72)"/><path class="cls-3" d="M125.75,75.93a0.5,0.5,0,0,1,.51.49,0.51,0.51,0,1,1-.51-0.49m0.38,5.72h-0.76V77.81h0.76v3.84Z" transform="translate(-1.61 -2.72)"/><polyline class="cls-3" points="126.62 78.93 125.86 78.93 125.86 75.87 125.86 72.81 126.62 72.81 126.62 75.87 126.62 78.93"/><path class="cls-3" d="M130,75.93a0.5,0.5,0,0,1,.51.49,0.51,0.51,0,1,1-.51-0.49m0.38,5.72h-0.76V77.81h0.76v3.84Z" transform="translate(-1.61 -2.72)"/><path class="cls-3" d="M132.88,81.71a1,1,0,0,1-1.12-1.2V78.43H131V77.81h0.74v-1.1h0.75v1.1h1v0.62h-1v2c0,0.44.13,0.64,0.54,0.65a1.09,1.09,0,0,0,.45-0.1l0,0.62a1.94,1.94,0,0,1-.65.11" transform="translate(-1.61 -2.72)"/><path class="cls-3" d="M134.59,77.81c0.41,1,.78,2,1.21,3l1.06-3h0.81l-1.86,4.75a1.4,1.4,0,0,1-1.83,1l0.07-.67a0.79,0.79,0,0,0,.83-0.1,4.73,4.73,0,0,0,.51-1.12l-1.64-3.84h0.85" transform="translate(-1.61 -2.72)"/><path class="cls-3" d="M100.56,89.4a1.39,1.39,0,0,0,0,2.78,1.39,1.39,0,0,0,0-2.78m-0.14-.63a1.7,1.7,0,0,1,1.39.68V86.59h0.76v6.12h-0.74a3.73,3.73,0,0,0,0-.61,1.6,1.6,0,0,1-1.39.71,1.84,1.84,0,0,1-1.94-2A1.86,1.86,0,0,1,100.42,88.77Z" transform="translate(-1.61 -2.72)"/><path class="cls-3" d="M105.63,88.77c1.3,0,1.9.87,1.84,2.25h-3a1.2,1.2,0,0,0,1.25,1.17,1.28,1.28,0,0,0,1.12-.58L107.32,92a1.92,1.92,0,0,1-1.65.79,2,2,0,0,1,0-4m1.08,1.68a1.07,1.07,0,0,0-1.54-1,1.12,1.12,0,0,0-.75,1h2.28Z" transform="translate(-1.61 -2.72)"/><path class="cls-3" d="M109.76,92.78a1,1,0,0,1-1.12-1.2V89.5H107.9V88.88h0.74v-1.1h0.75v1.1h1V89.5h-1v2c0,0.44.13,0.64,0.54,0.65a1.09,1.09,0,0,0,.45-0.1l0,0.62a1.94,1.94,0,0,1-.65.11" transform="translate(-1.61 -2.72)"/><path class="cls-3" d="M112.48,92.21a1.09,1.09,0,0,0,1.11-1.33c-0.83,0-1.9,0-1.9.73a0.65,0.65,0,0,0,.79.6m-1.56-.58c0-1.24,1.4-1.26,2.67-1.3a0.83,0.83,0,0,0-.95-0.95,1.6,1.6,0,0,0-1.09.45l-0.4-.49a2.26,2.26,0,0,1,1.57-.58,1.42,1.42,0,0,1,1.6,1.51,23.92,23.92,0,0,0,.06,2.44h-0.69a2.56,2.56,0,0,1-.06-0.55h0a1.47,1.47,0,0,1-1.29.65A1.19,1.19,0,0,1,110.92,91.63Z" transform="translate(-1.61 -2.72)"/><path class="cls-3" d="M116,87a0.5,0.5,0,0,1,.51.49A0.51,0.51,0,1,1,116,87m0.38,5.72H115.6V88.88h0.76v3.84Z" transform="translate(-1.61 -2.72)"/><polyline class="cls-3" points="116.85 90 116.09 90 116.09 86.94 116.09 83.88 116.85 83.88 116.85 86.94 116.85 90"/><path class="cls-3" d="M119.66,90.4c-0.5-1.26.95-2,2.14-1.47a1.3,1.3,0,0,1,.6.47l-0.53.45a1,1,0,0,0-.89-0.48,0.58,0.58,0,0,0-.71.5c0,0.59.92,0.51,1.39,0.73a1.08,1.08,0,0,1,.78,1c0.06,1.56-2.45,1.51-3.08.55l0.54-.46a1.24,1.24,0,0,0,1,.53,0.62,0.62,0,0,0,.76-0.56c0-.73-1.27-0.51-1.76-0.95a0.84,0.84,0,0,1-.26-0.3" transform="translate(-1.61 -2.72)"/><line class="cls-2" x1="270.45" y1="12.11" x2="241.65" y2="34.38"/><path class="cls-3" d="M272.06,14.82l-0.27-.36,0.27-.23v0.59Zm1.35-.49-1.08.85-0.27-.36V14.24l0.81-.63Z" transform="translate(-1.61 -2.72)"/><polygon class="cls-3" points="248 32.13 241.65 34.38 245.43 28.8 248 32.13"/><path class="cls-3" d="M244.43,36.2l4.46-1.58-1.8-2.34ZM250.37,35l-7.56,2.7V37L247,30.75Z" transform="translate(-1.61 -2.72)"/><line class="cls-2" x1="270.45" y1="48.6" x2="241.2" y2="48.78"/><path class="cls-3" d="M272.06,51.32v0Zm1.35,0.45h-1.35v-0.9h1.35v0.9Z" transform="translate(-1.61 -2.72)"/><polygon class="cls-3" points="247.63 50.8 241.2 48.78 247.59 46.66 247.63 50.8"/><path class="cls-3" d="M244.25,51.5l4.55,1.44,0-3Zm5.45,2.66-6.89-2.21V51l6.84-2.25Z" transform="translate(-1.61 -2.72)"/><line class="cls-2" x1="270.45" y1="84.42" x2="241.65" y2="63.13"/><path class="cls-3" d="M272.06,87.68l-0.27-.18,0.27-.36v0.54Zm1.35-.09-0.54.72-0.81-.63V87.14l0.27-.36Z" transform="translate(-1.61 -2.72)"/><polygon class="cls-3" points="248.04 65.25 245.56 68.63 241.65 63.13 248.04 65.25"/><path class="cls-3" d="M247.18,70.58l1.75-2.39-4.5-1.48Zm3.19-2.84-3.19,4.36L242.81,66V65.22Z" transform="translate(-1.61 -2.72)"/><path class="cls-1" d="M380.06,3.17H274.31a2.23,2.23,0,0,0-2.25,2.25V24.18a2.23,2.23,0,0,0,2.25,2.25H380.06" transform="translate(-1.61 -2.72)"/><path class="cls-2" d="M380.06,3.17H274.31a2.23,2.23,0,0,0-2.25,2.25V24.18a2.23,2.23,0,0,0,2.25,2.25H380.06" transform="translate(-1.61 -2.72)"/><line class="cls-2" x1="292.05" y1="0.45" x2="292.05" y2="23.72"/><path class="cls-3" d="M302.5,17a1.78,1.78,0,0,0,1.54-.76l0.64,0.44a2.57,2.57,0,0,1-2.19,1,2.87,2.87,0,0,1-2.79-1.8,3.44,3.44,0,0,1,0-2.45,3,3,0,0,1,3.42-1.73,2.23,2.23,0,0,1,1.47.83l-0.63.49a1.73,1.73,0,0,0-1.43-.67,2.1,2.1,0,0,0-2.18,2.3A2.06,2.06,0,0,0,302.5,17" transform="translate(-1.61 -2.72)"/><path class="cls-3" d="M306.59,17.06a1.09,1.09,0,0,0,1.11-1.33c-0.83,0-1.9,0-1.9.73a0.65,0.65,0,0,0,.79.6M305,16.48c0-1.24,1.4-1.26,2.67-1.3a0.83,0.83,0,0,0-.95-0.95,1.6,1.6,0,0,0-1.09.45l-0.4-.49a2.26,2.26,0,0,1,1.57-.58,1.42,1.42,0,0,1,1.6,1.51,23.92,23.92,0,0,0,.06,2.44H307.8a2.56,2.56,0,0,1-.06-0.55h0a1.47,1.47,0,0,1-1.29.65A1.19,1.19,0,0,1,305,16.48Z" transform="translate(-1.61 -2.72)"/><path class="cls-3" d="M310.84,17.63a1,1,0,0,1-1.12-1.2V14.35H309V13.73h0.74v-1.1h0.75v1.1h1v0.62h-1v2c0,0.44.13,0.64,0.54,0.65a1.09,1.09,0,0,0,.45-0.1l0,0.62a1.94,1.94,0,0,1-.65.11" transform="translate(-1.61 -2.72)"/><path class="cls-3" d="M313.56,17.06a1.09,1.09,0,0,0,1.11-1.33c-0.83,0-1.9,0-1.9.73a0.65,0.65,0,0,0,.79.6M312,16.48c0-1.24,1.4-1.26,2.67-1.3a0.83,0.83,0,0,0-.95-0.95,1.6,1.6,0,0,0-1.09.45l-0.4-.49a2.26,2.26,0,0,1,1.57-.58,1.42,1.42,0,0,1,1.6,1.51,23.92,23.92,0,0,0,.06,2.44h-0.69a2.56,2.56,0,0,1-.06-0.55h0a1.47,1.47,0,0,1-1.29.65A1.19,1.19,0,0,1,312,16.48Z" transform="translate(-1.61 -2.72)"/><polyline class="cls-3" points="315.84 14.85 315.08 14.85 315.08 11.79 315.08 8.73 315.84 8.73 315.84 11.79 315.84 14.85"/><path class="cls-3" d="M320.59,17a1.24,1.24,0,0,0,1.28-1.39,1.28,1.28,0,1,0-2.56,0A1.24,1.24,0,0,0,320.59,17m0-3.41a1.9,1.9,0,0,1,2.07,2,2.07,2.07,0,0,1-4.14,0A1.89,1.89,0,0,1,320.59,13.62Z" transform="translate(-1.61 -2.72)"/><path class="cls-3" d="M325.53,14.25a1.21,1.21,0,0,0-1.27,1.35,1.29,1.29,0,1,0,2.58,0,1.24,1.24,0,0,0-1.3-1.35m2,3.12a1.92,1.92,0,0,1-2.12,2.14,2.81,2.81,0,0,1-1.88-.7l0.49-.59a2,2,0,0,0,1.4.62c1.1,0,1.47-.77,1.34-1.91a1.56,1.56,0,0,1-1.35.66,1.81,1.81,0,0,1-1.94-2,1.82,1.82,0,0,1,1.93-2,1.63,1.63,0,0,1,1.4.72V13.73h0.74v3.64Z" transform="translate(-1.61 -2.72)"/><path class="cls-1" d="M380.06,39.35H274.31a2.23,2.23,0,0,0-2.25,2.25V60.36a2.26,2.26,0,0,0,2.25,2.25H380.06" transform="translate(-1.61 -2.72)"/><path class="cls-2" d="M380.06,39.35H274.31a2.23,2.23,0,0,0-2.25,2.25V60.36a2.26,2.26,0,0,0,2.25,2.25H380.06" transform="translate(-1.61 -2.72)"/><line class="cls-2" x1="292.05" y1="36.63" x2="292.05" y2="59.9"/><path class="cls-3" d="M302.75,49.61c0-1-1.15-.92-2.19-0.92v1.85c1,0,2.19.09,2.19-.94m0.81,0c0,1.51-1.39,1.69-3,1.62v2.52h-0.8V48h1.75C302.7,48,303.56,48.43,303.56,49.61Z" transform="translate(-1.61 -2.72)"/><path class="cls-3" d="M304.17,53.75c0-1.28,0-2.61,0-3.84h0.72c0,0.16,0,.48,0,0.65h0a1.3,1.3,0,0,1,1.47-.72l0,0.7a1.1,1.1,0,0,0-1.43,1.19v2h-0.76" transform="translate(-1.61 -2.72)"/><path class="cls-3" d="M308.77,53.21a1.39,1.39,0,1,0-1.28-1.39,1.24,1.24,0,0,0,1.28,1.39m0-3.41a2,2,0,1,1-2.07,2A1.9,1.9,0,0,1,308.77,49.8Z" transform="translate(-1.61 -2.72)"/><path class="cls-3" d="M313.7,50.43a1.39,1.39,0,0,0,0,2.78,1.39,1.39,0,0,0,0-2.78m-0.14-.63a1.7,1.7,0,0,1,1.39.68V47.62h0.76v6.12H315a3.73,3.73,0,0,0,0-.61,1.6,1.6,0,0,1-1.39.71,1.84,1.84,0,0,1-1.94-2A1.86,1.86,0,0,1,313.56,49.8Z" transform="translate(-1.61 -2.72)"/><path class="cls-3" d="M320.43,49.91c0,1.28,0,2.61,0,3.84h-0.72c0-.16,0-0.49,0-0.63a1.41,1.41,0,0,1-1.26.74A1.36,1.36,0,0,1,317,52.29V49.91h0.76V52c0,0.68.19,1.18,0.87,1.18a1.11,1.11,0,0,0,1-1.26v-2h0.76" transform="translate(-1.61 -2.72)"/><path class="cls-3" d="M321.5,51.83a1.88,1.88,0,0,1,2-2,1.82,1.82,0,0,1,1.44.63l-0.55.45a1.05,1.05,0,0,0-.88-0.44,1.39,1.39,0,0,0,0,2.77,1.1,1.1,0,0,0,.92-0.42L325,53.25a1.77,1.77,0,0,1-1.43.6,1.9,1.9,0,0,1-2.07-2" transform="translate(-1.61 -2.72)"/><path class="cls-3" d="M327,53.81a1,1,0,0,1-1.12-1.2V50.53h-0.74V49.91h0.74v-1.1h0.75v1.1h1v0.62h-1v2c0,0.44.13,0.64,0.54,0.65a1.09,1.09,0,0,0,.45-0.1l0,0.62a1.94,1.94,0,0,1-.65.11" transform="translate(-1.61 -2.72)"/><path class="cls-3" d="M330.8,48a0.5,0.5,0,0,1,.51.49A0.51,0.51,0,1,1,330.8,48m0.38,5.72h-0.76V49.91h0.76v3.84Z" transform="translate(-1.61 -2.72)"/><path class="cls-3" d="M333.73,53.81a1,1,0,0,1-1.12-1.2V50.53h-0.74V49.91h0.74v-1.1h0.75v1.1h1v0.62h-1v2c0,0.44.13,0.64,0.54,0.65a1.09,1.09,0,0,0,.45-0.1l0,0.62a1.94,1.94,0,0,1-.65.11" transform="translate(-1.61 -2.72)"/><path class="cls-3" d="M336.91,49.8c1.3,0,1.9.87,1.84,2.25h-3a1.2,1.2,0,0,0,1.25,1.17,1.28,1.28,0,0,0,1.12-.58l0.53,0.43a1.92,1.92,0,0,1-1.65.79,2,2,0,0,1,0-4M338,51.49a1.07,1.07,0,0,0-1.54-1,1.12,1.12,0,0,0-.75,1H338Z" transform="translate(-1.61 -2.72)"/><path class="cls-3" d="M340.56,50.54a1.34,1.34,0,0,1,1.22-.74,1.2,1.2,0,0,1,1.19.77,1.41,1.41,0,0,1,1.3-.77,1.36,1.36,0,0,1,1.43,1.56v2.38h-0.76V51.62c0-.66-0.19-1.17-0.85-1.17-1.39,0-.87,2-1,3.3h-0.76V51.46a0.83,0.83,0,0,0-.81-1,1.11,1.11,0,0,0-1,1.26v2h-0.76c0-1.28,0-2.61,0-3.84h0.72c0,0.16,0,.45,0,0.63h0" transform="translate(-1.61 -2.72)"/><path class="cls-1" d="M380.06,75.48H274.31a2.26,2.26,0,0,0-2.25,2.25V96.5a2.23,2.23,0,0,0,2.25,2.25H380.06" transform="translate(-1.61 -2.72)"/><path class="cls-2" d="M380.06,75.48H274.31a2.26,2.26,0,0,0-2.25,2.25V96.5a2.23,2.23,0,0,0,2.25,2.25H380.06" transform="translate(-1.61 -2.72)"/><line class="cls-2" x1="292.05" y1="72.77" x2="292.05" y2="96.03"/><polyline class="cls-3" points="298.95 87.17 298.15 87.17 298.15 84.3 298.15 81.43 298.95 81.43 298.95 84.3 298.95 87.17"/><path class="cls-3" d="M301.92,89.88c0-1.28,0-2.61,0-3.84h0.72c0,0.16,0,.45,0,0.63h0a1.34,1.34,0,0,1,1.25-.74,1.36,1.36,0,0,1,1.43,1.56v2.38h-0.76V87.75c0-.68-0.19-1.17-0.87-1.17a1.11,1.11,0,0,0-1,1.26v2h-0.76" transform="translate(-1.61 -2.72)"/><path class="cls-3" d="M308.44,89.88h-0.83L306,86h0.84c0.38,1,.74,2,1.14,3l1.13-3H310" transform="translate(-1.61 -2.72)"/><path class="cls-3" d="M312.45,85.94c1.3,0,1.9.87,1.84,2.25h-3a1.2,1.2,0,0,0,1.25,1.17,1.28,1.28,0,0,0,1.12-.58l0.53,0.43a1.92,1.92,0,0,1-1.65.79,2,2,0,0,1,0-4m1.08,1.68a1.07,1.07,0,0,0-1.54-1,1.12,1.12,0,0,0-.75,1h2.28Z" transform="translate(-1.61 -2.72)"/><path class="cls-3" d="M315.35,89.88c0-1.28,0-2.61,0-3.84H316c0,0.16,0,.45,0,0.63h0a1.34,1.34,0,0,1,1.25-.74,1.36,1.36,0,0,1,1.43,1.56v2.38H318V87.75c0-.68-0.19-1.17-0.87-1.17a1.11,1.11,0,0,0-1,1.26v2h-0.76" transform="translate(-1.61 -2.72)"/><path class="cls-3" d="M321.29,89.95a1,1,0,0,1-1.12-1.2V86.67h-0.74V86h0.74v-1.1h0.75V86h1v0.62h-1v2c0,0.44.13,0.64,0.54,0.65a1.09,1.09,0,0,0,.45-0.1l0,0.62a1.94,1.94,0,0,1-.65.11" transform="translate(-1.61 -2.72)"/><path class="cls-3" d="M324.55,89.35A1.39,1.39,0,1,0,323.27,88a1.24,1.24,0,0,0,1.28,1.39m0-3.41a2,2,0,1,1-2.07,2A1.9,1.9,0,0,1,324.55,85.94Z" transform="translate(-1.61 -2.72)"/><path class="cls-3" d="M327.67,89.88c0-1.28,0-2.61,0-3.84h0.72c0,0.16,0,.48,0,0.65h0a1.3,1.3,0,0,1,1.47-.72l0,0.7a1.1,1.1,0,0,0-1.43,1.19v2h-0.76" transform="translate(-1.61 -2.72)"/><path class="cls-3" d="M330.87,86c0.41,1,.78,2,1.21,3l1.06-3H334l-1.86,4.75a1.4,1.4,0,0,1-1.83,1l0.07-.67a0.79,0.79,0,0,0,.83-0.1,4.73,4.73,0,0,0,.51-1.12L330,86h0.85" transform="translate(-1.61 -2.72)"/><path class="cls-3" d="M337.1,84.16a0.5,0.5,0,0,1,.51.49,0.51,0.51,0,1,1-.51-0.49m0.38,5.72h-0.76V86h0.76v3.84Z" transform="translate(-1.61 -2.72)"/><path class="cls-3" d="M340,89.95a1,1,0,0,1-1.12-1.2V86.67h-0.74V86h0.74v-1.1h0.75V86h1v0.62h-1v2c0,0.44.13,0.64,0.54,0.65a1.09,1.09,0,0,0,.45-0.1l0,0.62a1.94,1.94,0,0,1-.65.11" transform="translate(-1.61 -2.72)"/><path class="cls-3" d="M343.21,85.94c1.3,0,1.9.87,1.84,2.25h-3a1.2,1.2,0,0,0,1.25,1.17,1.28,1.28,0,0,0,1.12-.58l0.53,0.43a1.92,1.92,0,0,1-1.65.79,2,2,0,0,1,0-4m1.08,1.68a1.07,1.07,0,0,0-1.54-1,1.12,1.12,0,0,0-.75,1h2.28Z" transform="translate(-1.61 -2.72)"/><path class="cls-3" d="M346.86,86.67a1.34,1.34,0,0,1,1.22-.74,1.2,1.2,0,0,1,1.19.77,1.41,1.41,0,0,1,1.3-.77A1.36,1.36,0,0,1,352,87.5v2.38h-0.76V87.75c0-.66-0.19-1.17-0.85-1.17-1.39,0-.87,2-1,3.3h-0.76V87.6a0.83,0.83,0,0,0-.81-1,1.11,1.11,0,0,0-1,1.26v2h-0.76c0-1.28,0-2.61,0-3.84h0.72c0,0.16,0,.45,0,0.63h0" transform="translate(-1.61 -2.72)"/></svg>